<svg width="33" height="33" viewBox="0 0 33 33" fill="none" xmlns="http://www.w3.org/2000/svg">
<path d="M29.4643 0H3.53571C2.59798 0 1.69866 0.372512 1.03559 1.03559C0.372512 1.69866 0 2.59798 0 3.53571L0 29.4643C0 30.402 0.372512 31.3013 1.03559 31.9644C1.69866 32.6275 2.59798 33 3.53571 33H13.6456V21.7807H9.00502V16.5H13.6456V12.4752C13.6456 7.89717 16.3711 5.36839 20.5454 5.36839C22.5446 5.36839 24.6351 5.72491 24.6351 5.72491V10.2182H22.3317C20.0622 10.2182 19.3544 11.6266 19.3544 13.0711V16.5H24.4207L23.6105 21.7807H19.3544V33H29.4643C30.402 33 31.3013 32.6275 31.9644 31.9644C32.6275 31.3013 33 30.402 33 29.4643V3.53571C33 2.59798 32.6275 1.69866 31.9644 1.03559C31.3013 0.372512 30.402 0 29.4643 0Z" fill="white"/>
</svg>
