<svg width="33" height="33" viewBox="0 0 33 33" fill="none" xmlns="http://www.w3.org/2000/svg">
<path d="M16.5037 8.03922C11.8215 8.03922 8.04479 11.8167 8.04479 16.5C8.04479 21.1833 11.8215 24.9608 16.5037 24.9608C21.1859 24.9608 24.9626 21.1833 24.9626 16.5C24.9626 11.8167 21.1859 8.03922 16.5037 8.03922ZM16.5037 22.0006C13.4779 22.0006 11.0043 19.5338 11.0043 16.5C11.0043 13.4662 13.4706 10.9994 16.5037 10.9994C19.5368 10.9994 22.0031 13.4662 22.0031 16.5C22.0031 19.5338 19.5294 22.0006 16.5037 22.0006ZM27.2816 7.69313C27.2816 8.79031 26.3982 9.66657 25.3086 9.66657C24.2117 9.66657 23.3356 8.78294 23.3356 7.69313C23.3356 6.60331 24.219 5.71968 25.3086 5.71968C26.3982 5.71968 27.2816 6.60331 27.2816 7.69313ZM32.8841 9.69603C32.7589 7.05249 32.1552 4.71087 30.219 2.7816C28.2902 0.852337 25.9491 0.248522 23.3061 0.115977C20.5822 -0.0386589 12.4178 -0.0386589 9.69387 0.115977C7.05828 0.241158 4.71718 0.844974 2.78098 2.77424C0.844785 4.7035 0.248466 7.04513 0.115951 9.68866C-0.0386503 12.4132 -0.0386503 20.5794 0.115951 23.304C0.241104 25.9475 0.844785 28.2891 2.78098 30.2184C4.71718 32.1477 7.05092 32.7515 9.69387 32.884C12.4178 33.0387 20.5822 33.0387 23.3061 32.884C25.9491 32.7588 28.2902 32.155 30.219 30.2184C32.1479 28.2891 32.7515 25.9475 32.8841 23.304C33.0387 20.5794 33.0387 12.4206 32.8841 9.69603ZM29.365 26.2273C28.7908 27.6706 27.6791 28.7825 26.2288 29.3642C24.0571 30.2258 18.9037 30.0269 16.5037 30.0269C14.1037 30.0269 8.94294 30.2184 6.77853 29.3642C5.33558 28.7899 4.22393 27.678 3.64233 26.2273C2.78098 24.0551 2.97975 18.9005 2.97975 16.5C2.97975 14.0995 2.78834 8.93758 3.64233 6.77268C4.21656 5.32941 5.32822 4.2175 6.77853 3.63578C8.95031 2.77424 14.1037 2.97306 16.5037 2.97306C18.9037 2.97306 24.0644 2.7816 26.2288 3.63578C27.6718 4.21014 28.7834 5.32205 29.365 6.77268C30.2264 8.94494 30.0276 14.0995 30.0276 16.5C30.0276 18.9005 30.2264 24.0624 29.365 26.2273Z" fill="white"/>
</svg>
