<svg width="165" height="102" viewBox="0 0 165 102" fill="none" xmlns="http://www.w3.org/2000/svg">
<g clip-path="url(#clip0_14_166)">
<path d="M118.265 23.7211H0.00689697V94.0541H96.4519C89.2174 86.2002 85.2115 75.9276 85.2283 65.2725C85.227 55.655 88.4887 46.319 94.485 38.7773C100.481 31.2356 108.861 25.9302 118.265 23.7211ZM17.0767 54.9215H9.97574V48.4028H17.0767V54.9215ZM17.0767 40.2716H9.97574V33.753H17.0767V40.2716ZM77.8241 54.9215H22.4678V48.4028H77.8241V54.9215ZM77.8241 40.2716H22.4678V33.753H77.8241V40.2716Z" fill="#F1F2F2"/>
<path d="M155.883 0H0V17.2059H155.883V0Z" fill="#F1F2F2"/>
<path d="M155.883 23.7211V32.7752C150.705 28.3765 144.546 25.2724 137.92 23.7211H155.883Z" fill="#F1F2F2"/>
<path d="M155.883 41.095C152.422 37.1448 148.151 33.9792 143.357 31.8118C138.563 29.6444 133.358 28.5257 128.092 28.5311C118.304 28.5311 108.916 32.4014 101.995 39.2904C95.0733 46.1795 91.1849 55.523 91.1849 65.2656C91.179 70.8023 92.4337 76.2683 94.8546 81.2532C97.2755 86.2381 100.8 90.6123 105.163 94.0472C111.679 99.2082 119.764 102.012 128.092 102C136.42 102.012 144.506 99.2082 151.022 94.0472C152.78 92.6609 154.407 91.1175 155.883 89.4361C161.773 82.7503 165.014 74.1577 165 65.2656C165.014 56.3734 161.773 47.7808 155.883 41.095ZM124.876 34.0034H131.453V56.7536L143.122 43.4589L148.165 47.8436L131.453 66.8849V66.9707H131.378L131.305 67.0531L131.212 66.9707H124.876V34.0034Z" fill="#F1F2F2"/>
</g>
<defs>
<clipPath id="clip0_14_166">
<rect width="165" height="102" fill="white"/>
</clipPath>
</defs>
</svg>
