<svg width="93" height="142" viewBox="0 0 93 142" fill="none" xmlns="http://www.w3.org/2000/svg">
<rect x="1.74265" y="13.7241" width="67.4335" height="128.579" rx="7.5" transform="rotate(-10.2346 1.74265 13.7241)" stroke="#DA3837" stroke-width="3"/>
<rect x="9.89837" y="26.2901" width="55.5199" height="99.3943" transform="rotate(-10.1173 9.89837 26.2901)" stroke="#DA3837" stroke-width="3"/>
<path d="M25.7055 68.2511L24.9436 63.95L26.5151 63.6716L26.3735 62.8721L22.3688 63.5815L22.5104 64.3811L24.082 64.1027L24.8439 68.4037L25.7055 68.2511ZM28.0724 63.4029L27.9418 62.6654L27.0733 62.8192L27.204 63.5567L28.0724 63.4029ZM28.8263 67.6982L28.1779 64.0382L27.3232 64.1896L27.9716 67.8496L28.8263 67.6982ZM31.3311 67.3327C32.2134 67.1764 32.5609 66.6101 32.7191 65.9778L31.9708 65.8473C31.8625 66.3997 31.6145 66.5645 31.2285 66.6329C30.6702 66.7318 30.2774 66.3606 30.1394 65.5817C29.9844 64.7064 30.3349 64.3172 30.8173 64.2318C31.224 64.1597 31.5213 64.3132 31.7394 64.7011L32.411 64.3191C32.0903 63.793 31.6152 63.3582 30.7054 63.5194C29.892 63.6635 29.0369 64.3339 29.2847 65.7331C29.5216 67.0703 30.4833 67.4829 31.3311 67.3327ZM34.4189 66.7075L34.232 65.6529L34.7044 64.9081L35.949 66.4364L36.8382 66.2789L35.1309 64.1856L36.0864 62.6372L35.1559 62.8021L34.0538 64.6466L33.5153 61.6069L32.6675 61.7571L33.5711 66.8577L34.4189 66.7075ZM38.8511 66.0005C39.5059 65.8845 39.9663 65.5542 40.2709 65.0665L39.7448 64.7048C39.5167 65.0224 39.2691 65.2298 38.7935 65.3141C38.2558 65.4093 37.7979 65.1918 37.6462 64.5363L40.1482 64.093L40.1128 63.8931C39.8491 62.4043 38.9766 62.0541 38.1564 62.1994C37.3982 62.3337 36.5029 63.0184 36.7496 64.4107C36.9877 65.7548 37.9344 66.1629 38.8511 66.0005ZM37.5477 63.8997C37.5205 63.2647 37.8581 62.9632 38.2716 62.8899C38.7817 62.7996 39.1099 63.0471 39.257 63.5969L37.5477 63.8997ZM42.599 65.3082C42.8126 65.2703 43.1248 65.1866 43.2107 65.15L43.0923 64.4814C43.0145 64.5237 42.8596 64.5724 42.7355 64.5944C42.3151 64.6689 42.1698 64.5311 42.1002 64.1382L41.7791 62.3254L42.7234 62.1582L42.6037 61.4827L41.6594 61.65L41.4335 60.3748L40.5857 60.525L40.8116 61.8001L40.1775 61.9125L40.2972 62.588L40.9313 62.4756L41.2903 64.5021C41.4075 65.1638 41.6684 65.473 42.599 65.3082ZM27.2442 77.2181C28.4229 77.0093 28.9292 76.2159 28.9979 75.1587L28.1447 75.1179C28.0872 75.9171 27.7736 76.3139 27.1119 76.4312C26.2504 76.5838 25.615 76.0068 25.4001 74.7937C25.1949 73.6357 25.5796 72.878 26.4412 72.7253C27.1167 72.6057 27.4742 72.8978 27.7868 73.5391L28.5655 73.1594C28.1732 72.2692 27.492 71.7145 26.3065 71.9246C25.0244 72.1517 24.23 73.245 24.5328 74.9544C24.8442 76.712 25.9346 77.4501 27.2442 77.2181ZM31.597 76.4257C32.4861 76.2682 33.2821 75.5443 33.0452 74.2071C32.8058 72.8561 31.8121 72.4635 30.923 72.621C30.0269 72.7797 29.2354 73.4886 29.4748 74.8396C29.7116 76.1768 30.7078 76.5832 31.597 76.4257ZM31.4712 75.7158C30.8233 75.8306 30.4528 75.3843 30.3295 74.6882C30.1988 73.9507 30.4377 73.4534 31.0512 73.3447C31.6922 73.2311 32.0696 73.6761 32.1905 74.3585C32.3236 75.1098 32.0847 75.6071 31.4712 75.7158ZM34.9658 75.7507L34.514 73.2004C34.7729 72.856 35.0501 72.615 35.4223 72.549C35.8083 72.4806 36.0104 72.6581 36.0812 73.0579L36.5098 75.4772L37.3576 75.327L36.8862 72.6665C36.758 71.9427 36.2834 71.6714 35.6148 71.7898C35.0083 71.8973 34.6408 72.3107 34.4212 72.6766L34.3174 72.0907L33.4696 72.2409L34.118 75.9009L34.9658 75.7507ZM40.8181 70.3207L40.6813 69.5487L39.8198 69.7013L39.9565 70.4733L40.8181 70.3207ZM39.4291 74.9601L38.9004 71.9755L39.6172 71.8486L39.4975 71.1731L38.7807 71.3001L38.7245 70.983C38.6684 70.6659 38.8057 70.4781 39.109 70.4244C39.1848 70.4109 39.3032 70.3971 39.3677 70.3999L39.2517 69.7451C39.1884 69.7492 38.9354 69.7655 38.77 69.7949C37.9566 69.9389 37.7583 70.4646 37.867 71.078L37.9329 71.4502L37.2988 71.5626L37.4184 72.2381L38.0526 72.1257L38.5813 75.1103L39.4291 74.9601ZM41.5658 74.5815L40.9174 70.9215L40.0696 71.0717L40.718 74.7317L41.5658 74.5815ZM43.4334 74.2507L43.0231 71.9348C43.1948 71.4991 43.4942 71.1831 44.0388 71.0866C44.087 71.0781 44.2261 71.0605 44.2687 71.0601L44.1583 70.2763L44.1031 70.2861C43.407 70.4094 43.0678 70.7823 42.9051 71.1879L42.8913 71.1904L42.785 70.5907L41.9372 70.7409L42.5856 74.4009L43.4334 74.2507ZM46.2739 73.7475L45.8258 71.2179C46.0928 70.8791 46.3412 70.6361 46.679 70.5762C47.0788 70.5054 47.2289 70.6708 47.3009 71.0774L47.7283 73.4899L48.5761 73.3397L48.128 70.8101C48.395 70.4713 48.6365 70.2295 48.9811 70.1684C49.3809 70.0976 49.5311 70.2629 49.6031 70.6696L50.0305 73.082L50.8783 72.9319L50.413 70.3057C50.297 69.6509 49.8937 69.2603 49.1493 69.3922C48.591 69.4911 48.2068 69.8506 47.9735 70.2189C47.7653 69.8862 47.4813 69.6877 46.8678 69.7963C46.3095 69.8952 45.9424 70.2304 45.7147 70.5907L45.6256 70.0875L44.7778 70.2377L45.4261 73.8977L46.2739 73.7475ZM52.7973 71.9734C52.4871 72.0284 52.2604 71.9121 52.2091 71.6226C52.1383 71.2229 52.6319 70.8795 53.6207 70.5621L53.7636 71.3686C53.54 71.6712 53.2315 71.8965 52.7973 71.9734ZM52.6031 72.6832C53.1476 72.5867 53.5562 72.365 53.8613 71.92C53.8979 72.1268 53.9519 72.231 54.027 72.374L54.8817 72.2226C54.7729 72.05 54.6977 71.786 54.6196 71.3449L54.3522 69.8354C54.2008 68.9807 53.78 68.5718 52.8012 68.7452C52.0431 68.8795 51.4833 69.2915 51.1539 69.7195L51.6615 70.177C51.9277 69.8739 52.2973 69.5525 52.8074 69.4621C53.2141 69.3901 53.4351 69.5144 53.4999 69.8798L53.5194 69.99C51.8442 70.4859 51.2627 71.1363 51.4032 71.9289C51.5106 72.5355 52.0103 72.7882 52.6031 72.6832ZM57.1196 71.876C57.3332 71.8381 57.6454 71.7544 57.7314 71.7178L57.6129 71.0492C57.5351 71.0915 57.3802 71.1402 57.2562 71.1622C56.8357 71.2367 56.6904 71.0989 56.6208 70.706L56.2997 68.8932L57.244 68.726L57.1243 68.0505L56.18 68.2178L55.9542 66.9426L55.1064 67.0928L55.3322 68.368L54.6981 68.4803L54.8178 69.1558L55.4519 69.0434L55.8109 71.0699C55.9281 71.7316 56.1891 72.0408 57.1196 71.876ZM58.6064 67.1339L58.4758 66.3964L57.6073 66.5502L57.7379 67.2878L58.6064 67.1339ZM59.3602 71.4293L58.7119 67.7693L57.8572 67.9207L58.5055 71.5807L59.3602 71.4293ZM61.9409 71.0503C62.8301 70.8928 63.626 70.1688 63.3891 68.8317C63.1498 67.4807 62.1561 67.088 61.2669 67.2455C60.3709 67.4043 59.5794 68.1132 59.8187 69.4642C60.0556 70.8013 61.0518 71.2078 61.9409 71.0503ZM61.8152 70.3404C61.1672 70.4551 60.7967 70.0089 60.6734 69.3128C60.5428 68.5752 60.7817 68.0779 61.3951 67.9693C62.0361 67.8557 62.4135 68.3007 62.5344 68.9831C62.6675 69.7344 62.4286 70.2317 61.8152 70.3404ZM65.3098 70.3753L64.858 67.825C65.1169 67.4806 65.3941 67.2395 65.7663 67.1736C66.1523 67.1052 66.3543 67.2827 66.4251 67.6825L66.8537 70.1018L67.7015 69.9516L67.2302 67.291C67.102 66.5673 66.6274 66.2959 65.9588 66.4144C65.3522 66.5218 64.9847 66.9353 64.7652 67.3012L64.6614 66.7153L63.8136 66.8655L64.462 70.5255L65.3098 70.3753Z" fill="#DA3837"/>
</svg>
