<svg width="176" height="102" viewBox="0 0 176 102" fill="none" xmlns="http://www.w3.org/2000/svg">
<g clip-path="url(#clip0_14_157)">
<path d="M60.2488 89.289C59.0663 90.8108 57.7908 92.2593 56.4292 93.6264C53.1052 96.9561 49.3001 99.7781 45.1387 102C40.2828 100.813 35.6373 98.9015 31.3608 96.3321C2.84419 79.1649 0.303927 37.9806 0 31.6622C11.0974 26.9686 22.7689 23.7384 34.7152 22.0547C35.4281 21.9556 36.1361 21.8614 36.839 21.7722C37.7846 41.5411 42.6023 69.1559 60.2488 89.289Z" fill="#F1F2F2"/>
<path d="M176 31.6771C175.7 37.9694 173.167 79.1648 144.639 96.3469C140.363 98.9176 135.718 100.829 130.861 102.015C126.701 99.793 122.897 96.971 119.575 93.6412C118.199 92.2602 116.911 90.7968 115.717 89.2593C133.274 69.4457 138.527 41.7455 139.859 21.8911C140.332 21.9506 140.808 22.0175 141.289 22.0844C153.233 23.7639 164.903 26.989 176 31.6771Z" fill="#F1F2F2"/>
<path d="M132.463 5.67537C118.318 1.95496 103.75 0.0475975 89.1145 1.79189e-05C74.1225 -0.0441752 59.1897 1.86396 44.6998 5.67537C44.2112 10.793 44.0107 15.9337 44.0995 21.0735C44.3509 38.0066 47.6829 64.5584 64.1438 83.4725C66.4158 86.0945 68.9099 88.5192 71.5992 90.72C76.3961 94.6339 81.7639 97.8055 87.5198 100.127C93.0336 98.1285 98.2179 95.3317 102.904 91.8275C106.175 89.3704 109.182 86.5868 111.879 83.5208C128.321 64.8929 132.111 38.1775 132.715 21.1329C132.909 15.9797 132.825 10.8198 132.463 5.67537ZM56.5643 32.688C56.8119 32.3833 61.791 26.5333 69.5656 27.626C70.0855 27.6976 70.6004 27.8006 71.1077 27.9344C77.6515 29.6255 80.3869 35.535 80.5557 35.9067C78.2604 37.9349 75.4507 39.3058 72.4284 39.8723C70.7146 40.1802 68.9595 40.1878 67.243 39.8946C60.4328 38.7388 57.0633 33.4908 56.5643 32.688ZM106.555 70.847C102.014 74.2329 95.7558 76.3216 88.8518 76.3216C81.2273 76.3216 74.3984 73.7757 69.7907 69.7506C66.1774 66.5988 63.9298 62.5403 63.7347 58.0951C66.2132 59.5295 68.8241 60.7267 71.5318 61.6706C77.0997 63.5906 82.9561 64.5608 88.8518 64.5398C94.1874 64.5548 99.4941 63.7627 104.588 62.1909C107.861 61.1825 111.008 59.811 113.969 58.1026C113.74 63.042 110.945 67.5503 106.555 70.847ZM109.328 39.9058C107.427 40.2298 105.482 40.1869 103.598 39.7794C100.776 39.1527 98.1626 37.8207 96.0073 35.9104C96.1649 35.5387 98.7463 29.9637 104.87 28.1054C105.563 27.8944 106.272 27.7378 106.99 27.6371C114.764 26.5444 119.747 32.3907 119.987 32.6955C119.488 33.4871 116.119 38.7313 109.313 39.8872L109.328 39.9058Z" fill="#F1F2F2"/>
</g>
<defs>
<clipPath id="clip0_14_157">
<rect width="176" height="102" fill="white"/>
</clipPath>
</defs>
</svg>
