<svg width="172" height="109" viewBox="0 0 172 109" fill="none" xmlns="http://www.w3.org/2000/svg">
<g clip-path="url(#clip0_14_171)">
<path d="M172 51.4712L165.803 96.697C162.013 96.1822 158.173 97.1883 155.127 99.494C152.081 101.8 150.079 105.216 149.561 108.992L30.1803 92.7637C30.4431 90.8632 30.3202 88.9294 29.8187 87.0771C29.3172 85.2248 28.4474 83.4918 27.261 81.9808H139.936C139.755 68.7658 144.856 64.8813 156.616 65.3579V34.8671L159.66 35.2799C159.402 37.1505 159.517 39.0532 159.998 40.8795C160.479 42.7057 161.317 44.4196 162.463 45.9232C163.609 47.4269 165.041 48.6908 166.677 49.6427C168.314 50.5947 170.123 51.216 172 51.4712Z" fill="#F1F2F2"/>
<path d="M147.911 14.1795C144.371 13.8281 141.086 12.1863 138.687 9.56923C136.287 6.95218 134.943 3.54437 134.911 0H14.4234C14.3925 3.67814 12.9472 7.20444 10.3853 9.85275C7.82327 12.5011 4.3396 14.0698 0.651665 14.2358C0.436952 14.3672 0.21848 14.491 0 14.6111V59.9159C1.89443 59.9159 3.77031 60.2877 5.52048 61.0101C7.27066 61.7326 8.86083 62.7915 10.2002 64.1263C11.5396 65.4612 12.602 67.0459 13.3266 68.7899C14.0512 70.5339 14.4239 72.403 14.4234 74.2906H134.911C134.911 72.4016 135.285 70.5311 136.011 68.7861C136.737 67.0411 137.801 65.4558 139.142 64.1208C140.483 62.7858 142.076 61.7273 143.828 61.0058C145.58 60.2842 147.458 59.9139 149.353 59.9159V14.9602C148.859 14.725 148.378 14.4644 147.911 14.1795ZM119.64 5.6936H126.421V13.0423H119.64V5.6936ZM119.64 19.2951H126.421V26.6439H119.64V19.2951ZM21.9648 5.6936H28.7452V13.0423H21.9648V5.6936ZM21.9648 19.2951H28.7452V26.6439H21.9648V19.2951ZM28.7452 67.4447H21.9648V60.096H28.7452V67.4447ZM28.7452 53.8432H21.9648V46.4945H28.7452V53.8432ZM28.7452 40.2454H21.9648V32.8929H28.7452V40.2454ZM126.421 67.4447H119.64V60.096H126.421V67.4447ZM126.421 53.8432H119.64V46.4945H126.421V53.8432ZM126.421 40.2454H119.64V32.8929H126.421V40.2454Z" fill="#F1F2F2"/>
</g>
<defs>
<clipPath id="clip0_14_171">
<rect width="172" height="109" fill="white"/>
</clipPath>
</defs>
</svg>
