<svg width="146" height="97" viewBox="0 0 146 97" fill="none" xmlns="http://www.w3.org/2000/svg">
<rect x="1.61042" y="12.0667" width="136.601" height="83.1014" rx="5.5" transform="rotate(-4.39005 1.61042 12.0667)" stroke="#DA3837" stroke-width="3"/>
<rect x="12.6339" y="35.5339" width="32.1093" height="45.4843" transform="rotate(-4.39005 12.6339 35.5339)" stroke="#DA3837" stroke-width="3"/>
<path d="M56.8503 38.823L56.6305 35.9605L58.6108 32.0083L57.4443 32.0978L56.0101 35.0513L54.133 32.352L52.9485 32.443L55.4999 36.0473L55.7196 38.9098L56.8503 38.823ZM60.685 38.6279C61.8426 38.5391 62.9526 37.7137 62.819 35.9728C62.684 34.214 61.4623 33.5856 60.3047 33.6745C59.1381 33.7641 58.0356 34.5708 58.1707 36.3296C58.3043 38.0705 59.5274 38.7168 60.685 38.6279ZM60.614 37.7036C59.7705 37.7684 59.353 37.1506 59.2834 36.2442C59.2097 35.284 59.5784 34.678 60.377 34.6167C61.2116 34.5527 61.6381 35.1698 61.7063 36.0582C61.7814 37.0363 61.4127 37.6423 60.614 37.7036ZM65.2941 38.2651C66.1555 38.1989 66.6981 37.742 66.9784 37.3956L67.028 38.0417L68.1408 37.9562L67.775 33.1913L66.6622 33.2767L66.9164 36.588C66.5409 36.9869 66.1563 37.2691 65.6718 37.3063C65.1872 37.3435 64.9443 37.1185 64.9036 36.589L64.6611 33.4303L63.5484 33.5157L63.8109 36.9347C63.8832 37.8769 64.4595 38.3291 65.2941 38.2651ZM70.4787 37.7768L70.2473 34.7616C70.5221 34.226 70.9453 33.8596 71.6542 33.8051C71.717 33.8003 71.8972 33.7955 71.9517 33.8003L71.9097 32.7836L71.8379 32.7891C70.9316 32.8587 70.4504 33.2928 70.1908 33.7911L70.1729 33.7925L70.1129 33.0118L69.0092 33.0965L69.375 37.8615L70.4787 37.7768ZM76.5008 37.3144L76.1295 32.4777L76.1474 32.4763L79.7762 37.063L80.7991 36.9845L80.2893 30.344L79.2484 30.4239L79.6122 35.162L79.5942 35.1633L76.0897 30.6664L74.9501 30.7539L75.4599 37.3944L76.5008 37.3144ZM83.5542 35.9876C83.1504 36.0186 82.875 35.8412 82.846 35.4643C82.8061 34.9438 83.4812 34.5671 84.7866 34.2863L84.8672 35.3362C84.5427 35.6951 84.1195 35.9442 83.5542 35.9876ZM83.2158 36.8711C83.9247 36.8167 84.4756 36.5849 84.9223 36.0541C84.943 36.3233 84.9988 36.4635 85.0768 36.6561L86.1895 36.5706C86.0722 36.3359 86.0095 35.9887 85.9654 35.4144L85.8145 33.4492C85.7291 32.3364 85.2425 31.76 83.9683 31.8578C82.9812 31.9336 82.2128 32.3898 81.7372 32.8957L82.3286 33.5453C82.7076 33.1912 83.2213 32.8269 83.8853 32.7759C84.4147 32.7352 84.6819 32.9223 84.7184 33.3979L84.7294 33.5415C82.5232 33.9636 81.6969 34.7221 81.7761 35.7541C81.8367 36.5437 82.4441 36.9304 83.2158 36.8711ZM88.3471 36.405L88.0942 33.1117C88.4788 32.7121 88.8274 32.4326 89.2671 32.3988C89.7876 32.3589 89.9587 32.5894 89.9994 33.1189L90.2405 36.2596L91.3442 36.1749L91.0914 32.8816C91.4759 32.482 91.8156 32.2032 92.2643 32.1687C92.7847 32.1288 92.9559 32.3593 92.9965 32.8888L93.2377 36.0295L94.3414 35.9448L94.0789 32.5259C94.0135 31.6734 93.547 31.1225 92.5778 31.1969C91.8509 31.2527 91.3139 31.664 90.9687 32.1057C90.7444 31.6535 90.4062 31.3636 89.6076 31.4249C88.8807 31.4807 88.3685 31.863 88.0315 32.2951L87.9812 31.64L86.8775 31.7247L87.2433 36.4897L88.3471 36.405ZM97.569 35.7963C98.4215 35.7309 99.0524 35.3665 99.504 34.7812L98.8766 34.2517C98.5445 34.6292 98.2014 34.8632 97.5822 34.9107C96.8823 34.9644 96.3239 34.6282 96.2129 33.7702L99.4703 33.5201L99.4503 33.2599C99.3015 31.3216 98.2296 30.763 97.1618 30.8449C96.1747 30.9207 94.9424 31.6833 95.0816 33.496C95.2159 35.2458 96.3755 35.8879 97.569 35.7963ZM96.1675 32.9432C96.2132 32.1273 96.6833 31.7843 97.2217 31.743C97.8857 31.692 98.2743 32.0503 98.3929 32.7724L96.1675 32.9432Z" fill="#DA3837"/>
<path d="M12.4538 27.1403L11.944 20.4998L10.8133 20.5866L11.3231 27.2271L12.4538 27.1403ZM15.9227 26.874C17.9776 26.7162 19.2934 25.6313 19.1116 23.2623C18.9331 20.9381 17.4948 20.0737 15.4129 20.2335L13.5195 20.3789L14.0292 27.0194L15.9227 26.874ZM14.7211 21.3337L15.5736 21.2683C17.0991 21.1512 17.8672 21.7511 17.9899 23.3484C18.1187 25.0265 17.4608 25.7449 15.9442 25.8614L15.0738 25.9282L14.7211 21.3337ZM25.0267 26.1751L24.9482 25.1521L21.6011 25.409L21.4529 23.4797L23.7771 23.3013L23.7006 22.3052L21.3765 22.4836L21.2497 20.8325L24.4174 20.5893L24.3375 19.5484L20.0481 19.8777L20.5579 26.5181L25.0267 26.1751ZM27.1723 26.0103L26.8009 21.1736L26.8189 21.1722L30.4476 25.7589L31.4706 25.6804L30.9608 19.0399L29.9199 19.1198L30.2836 23.8579L30.2657 23.8592L26.7612 19.3623L25.6215 19.4498L26.1313 26.0903L27.1723 26.0103ZM35.6316 25.3609L35.2018 19.7614L37.2477 19.6043L37.1678 18.5634L31.9542 18.9636L32.0341 20.0046L34.0801 19.8475L34.5099 25.447L35.6316 25.3609ZM39.874 25.0352L39.3642 18.3948L38.2336 18.4816L38.7434 25.122L39.874 25.0352ZM42.5712 24.8282L42.3542 22.0015L44.5707 21.8313L44.4942 20.8352L42.2778 21.0054L42.1414 19.2286L45.2014 18.9937L45.1214 17.9528L40.9397 18.2738L41.4495 24.9143L42.5712 24.8282ZM47.8399 24.4237L47.3301 17.7832L46.1994 17.87L46.7092 24.5105L47.8399 24.4237ZM52.0184 24.2293C53.5529 24.1115 54.3012 23.1604 54.523 21.8165L53.4366 21.6562C53.2618 22.6715 52.8103 23.1394 51.9488 23.2056C50.8271 23.2917 50.0873 22.4729 49.966 20.8936C49.8503 19.386 50.4385 18.4653 51.5602 18.3792C52.4396 18.3116 52.8599 18.7307 53.1787 19.5908L54.2232 19.2037C53.834 18.015 53.0327 17.219 51.4893 17.3375C49.8202 17.4657 48.6652 18.7639 48.836 20.9893C49.0117 23.2776 50.3134 24.3602 52.0184 24.2293ZM57.5054 18.3921L57.5233 18.3907L58.6363 21.0132L56.7878 21.1552L57.5054 18.3921ZM56.0964 23.7898L56.5225 22.1684L59.0441 21.9749L59.7038 23.5129L60.8524 23.4247L57.9895 16.9378L56.8857 17.0225L55.0465 23.8704L56.0964 23.7898ZM63.6829 23.2074L63.253 17.6079L65.299 17.4508L65.2191 16.4099L60.0054 16.8101L60.0853 17.8511L62.1313 17.694L62.5612 23.2935L63.6829 23.2074ZM67.9253 22.8817L67.4155 16.2412L66.2848 16.328L66.7946 22.9685L67.9253 22.8817ZM72.1935 22.6804C73.8716 22.5516 75.0887 21.2395 74.9172 19.0051C74.7457 16.7707 73.3425 15.6598 71.6644 15.7887C69.9774 15.9182 68.7513 17.2309 68.9228 19.4653C69.0944 21.6997 70.5065 22.8099 72.1935 22.6804ZM72.1157 21.6664C70.985 21.7532 70.1734 20.9399 70.0535 19.3785C69.9336 17.8171 70.613 16.9074 71.7437 16.8206C72.8564 16.7352 73.6667 17.5305 73.7865 19.0919C73.9064 20.6533 73.2284 21.5809 72.1157 21.6664ZM77.3946 22.1547L77.0233 17.318L77.0412 17.3166L80.67 21.9033L81.693 21.8247L81.1832 15.1843L80.1422 15.2642L80.506 20.0022L80.488 20.0036L76.9835 15.5067L75.8439 15.5942L76.3537 22.2346L77.3946 22.1547Z" fill="#DA3837"/>
</svg>
